<mxfile host="app.diagrams.net" modified="2020-10-10T21:35:28.875Z" agent="5.0 (Windows NT 10.0; Win64; x64) AppleWebKit/537.36 (KHTML, like Gecko) Chrome/85.0.4183.121 Safari/537.36" etag="5VtIzfog9gzGstyINLSo" version="13.7.9" type="github">
  <diagram id="C5RBs43oDa-KdzZeNtuy" name="Page-1">
    <mxGraphModel dx="2048" dy="625" grid="1" gridSize="10" guides="1" tooltips="1" connect="1" arrows="1" fold="1" page="1" pageScale="1" pageWidth="827" pageHeight="1169" math="0" shadow="0">
      <root>
        <mxCell id="WIyWlLk6GJQsqaUBKTNV-0" />
        <mxCell id="WIyWlLk6GJQsqaUBKTNV-1" parent="WIyWlLk6GJQsqaUBKTNV-0" />
        <mxCell id="MTp0QD98JIxEHf93p8Dd-0" value="Afiliado" style="rounded=0;whiteSpace=wrap;html=1;fillColor=#dae8fc;strokeColor=#6c8ebf;" vertex="1" parent="WIyWlLk6GJQsqaUBKTNV-1">
          <mxGeometry x="120" y="80" width="120" height="40" as="geometry" />
        </mxCell>
        <mxCell id="MTp0QD98JIxEHf93p8Dd-1" value="Nombre" style="ellipse;whiteSpace=wrap;html=1;fontStyle=4;fillColor=#ffe6cc;strokeColor=#d79b00;" vertex="1" parent="WIyWlLk6GJQsqaUBKTNV-1">
          <mxGeometry x="710" width="100" height="60" as="geometry" />
        </mxCell>
        <mxCell id="MTp0QD98JIxEHf93p8Dd-2" value="Pertenece" style="rhombus;whiteSpace=wrap;html=1;fillColor=#d5e8d4;strokeColor=#82b366;" vertex="1" parent="WIyWlLk6GJQsqaUBKTNV-1">
          <mxGeometry x="340" y="70" width="120" height="60" as="geometry" />
        </mxCell>
        <mxCell id="MTp0QD98JIxEHf93p8Dd-3" value="Sindicato" style="rounded=0;whiteSpace=wrap;html=1;fillColor=#dae8fc;strokeColor=#6c8ebf;" vertex="1" parent="WIyWlLk6GJQsqaUBKTNV-1">
          <mxGeometry x="560" y="80" width="120" height="40" as="geometry" />
        </mxCell>
        <mxCell id="MTp0QD98JIxEHf93p8Dd-4" value="Domicilio_sede" style="ellipse;whiteSpace=wrap;html=1;fontStyle=0;fillColor=#ffe6cc;strokeColor=#d79b00;" vertex="1" parent="WIyWlLk6GJQsqaUBKTNV-1">
          <mxGeometry x="710" y="70" width="100" height="60" as="geometry" />
        </mxCell>
        <mxCell id="MTp0QD98JIxEHf93p8Dd-5" value="Num_afiliados" style="ellipse;whiteSpace=wrap;html=1;fontStyle=0;fillColor=#ffe6cc;strokeColor=#d79b00;" vertex="1" parent="WIyWlLk6GJQsqaUBKTNV-1">
          <mxGeometry x="710" y="140" width="100" height="60" as="geometry" />
        </mxCell>
        <mxCell id="MTp0QD98JIxEHf93p8Dd-6" value="" style="endArrow=none;html=1;entryX=0;entryY=0.5;entryDx=0;entryDy=0;exitX=1;exitY=0.5;exitDx=0;exitDy=0;" edge="1" parent="WIyWlLk6GJQsqaUBKTNV-1" source="MTp0QD98JIxEHf93p8Dd-3" target="MTp0QD98JIxEHf93p8Dd-1">
          <mxGeometry width="50" height="50" relative="1" as="geometry">
            <mxPoint x="390" y="200" as="sourcePoint" />
            <mxPoint x="440" y="150" as="targetPoint" />
          </mxGeometry>
        </mxCell>
        <mxCell id="MTp0QD98JIxEHf93p8Dd-7" value="" style="endArrow=none;html=1;entryX=0;entryY=0.5;entryDx=0;entryDy=0;exitX=1;exitY=0.5;exitDx=0;exitDy=0;" edge="1" parent="WIyWlLk6GJQsqaUBKTNV-1" source="MTp0QD98JIxEHf93p8Dd-3" target="MTp0QD98JIxEHf93p8Dd-4">
          <mxGeometry width="50" height="50" relative="1" as="geometry">
            <mxPoint x="690" y="110" as="sourcePoint" />
            <mxPoint x="720" y="40" as="targetPoint" />
          </mxGeometry>
        </mxCell>
        <mxCell id="MTp0QD98JIxEHf93p8Dd-8" value="" style="endArrow=none;html=1;entryX=0;entryY=0.5;entryDx=0;entryDy=0;exitX=1;exitY=0.5;exitDx=0;exitDy=0;" edge="1" parent="WIyWlLk6GJQsqaUBKTNV-1" source="MTp0QD98JIxEHf93p8Dd-3" target="MTp0QD98JIxEHf93p8Dd-5">
          <mxGeometry width="50" height="50" relative="1" as="geometry">
            <mxPoint x="700" y="120" as="sourcePoint" />
            <mxPoint x="730" y="50" as="targetPoint" />
          </mxGeometry>
        </mxCell>
        <mxCell id="MTp0QD98JIxEHf93p8Dd-9" value="Cursos_formación" style="rounded=0;whiteSpace=wrap;html=1;fillColor=#dae8fc;strokeColor=#6c8ebf;" vertex="1" parent="WIyWlLk6GJQsqaUBKTNV-1">
          <mxGeometry x="120" y="360" width="120" height="40" as="geometry" />
        </mxCell>
        <mxCell id="MTp0QD98JIxEHf93p8Dd-10" value="Charlas" style="rounded=0;whiteSpace=wrap;html=1;fillColor=#dae8fc;strokeColor=#6c8ebf;" vertex="1" parent="WIyWlLk6GJQsqaUBKTNV-1">
          <mxGeometry x="530" y="360" width="120" height="40" as="geometry" />
        </mxCell>
        <mxCell id="MTp0QD98JIxEHf93p8Dd-11" value="Participan" style="rhombus;whiteSpace=wrap;html=1;fillColor=#d5e8d4;strokeColor=#82b366;" vertex="1" parent="WIyWlLk6GJQsqaUBKTNV-1">
          <mxGeometry x="320" y="220" width="120" height="60" as="geometry" />
        </mxCell>
        <mxCell id="MTp0QD98JIxEHf93p8Dd-12" value="DNI" style="ellipse;whiteSpace=wrap;html=1;fontStyle=4;fillColor=#ffe6cc;strokeColor=#d79b00;" vertex="1" parent="WIyWlLk6GJQsqaUBKTNV-1">
          <mxGeometry width="100" height="60" as="geometry" />
        </mxCell>
        <mxCell id="MTp0QD98JIxEHf93p8Dd-13" value="Nombre" style="ellipse;whiteSpace=wrap;html=1;fontStyle=0;fillColor=#ffe6cc;strokeColor=#d79b00;" vertex="1" parent="WIyWlLk6GJQsqaUBKTNV-1">
          <mxGeometry x="110" width="100" height="60" as="geometry" />
        </mxCell>
        <mxCell id="MTp0QD98JIxEHf93p8Dd-14" value="Domicilio" style="ellipse;whiteSpace=wrap;html=1;fontStyle=0;fillColor=#ffe6cc;strokeColor=#d79b00;" vertex="1" parent="WIyWlLk6GJQsqaUBKTNV-1">
          <mxGeometry y="70" width="100" height="60" as="geometry" />
        </mxCell>
        <mxCell id="MTp0QD98JIxEHf93p8Dd-15" value="Móvil" style="ellipse;whiteSpace=wrap;html=1;fontStyle=0;fillColor=#ffe6cc;strokeColor=#d79b00;" vertex="1" parent="WIyWlLk6GJQsqaUBKTNV-1">
          <mxGeometry y="140" width="100" height="60" as="geometry" />
        </mxCell>
        <mxCell id="MTp0QD98JIxEHf93p8Dd-16" value="Email" style="ellipse;whiteSpace=wrap;html=1;fontStyle=0;fillColor=#ffe6cc;strokeColor=#d79b00;" vertex="1" parent="WIyWlLk6GJQsqaUBKTNV-1">
          <mxGeometry x="80" y="190" width="100" height="60" as="geometry" />
        </mxCell>
        <mxCell id="MTp0QD98JIxEHf93p8Dd-17" value="Apellidos" style="ellipse;whiteSpace=wrap;html=1;fontStyle=0;fillColor=#ffe6cc;strokeColor=#d79b00;" vertex="1" parent="WIyWlLk6GJQsqaUBKTNV-1">
          <mxGeometry x="220" width="100" height="60" as="geometry" />
        </mxCell>
        <mxCell id="MTp0QD98JIxEHf93p8Dd-19" value="" style="ellipse;whiteSpace=wrap;html=1;fontStyle=0;fontColor=#ffffff;fillColor=none;strokeColor=#FF9933;" vertex="1" parent="WIyWlLk6GJQsqaUBKTNV-1">
          <mxGeometry x="85" y="192.5" width="90" height="55" as="geometry" />
        </mxCell>
        <mxCell id="MTp0QD98JIxEHf93p8Dd-20" value="" style="endArrow=none;html=1;entryX=1;entryY=1;entryDx=0;entryDy=0;exitX=0;exitY=0.5;exitDx=0;exitDy=0;" edge="1" parent="WIyWlLk6GJQsqaUBKTNV-1" source="MTp0QD98JIxEHf93p8Dd-0" target="MTp0QD98JIxEHf93p8Dd-12">
          <mxGeometry width="50" height="50" relative="1" as="geometry">
            <mxPoint x="390" y="200" as="sourcePoint" />
            <mxPoint x="440" y="150" as="targetPoint" />
          </mxGeometry>
        </mxCell>
        <mxCell id="MTp0QD98JIxEHf93p8Dd-21" value="" style="endArrow=none;html=1;entryX=1;entryY=0.5;entryDx=0;entryDy=0;exitX=0;exitY=0.5;exitDx=0;exitDy=0;" edge="1" parent="WIyWlLk6GJQsqaUBKTNV-1" source="MTp0QD98JIxEHf93p8Dd-0" target="MTp0QD98JIxEHf93p8Dd-14">
          <mxGeometry width="50" height="50" relative="1" as="geometry">
            <mxPoint x="130" y="110" as="sourcePoint" />
            <mxPoint x="95.3553390593272" y="61.21320343559637" as="targetPoint" />
          </mxGeometry>
        </mxCell>
        <mxCell id="MTp0QD98JIxEHf93p8Dd-22" value="" style="endArrow=none;html=1;entryX=0;entryY=0.5;entryDx=0;entryDy=0;exitX=1;exitY=0.5;exitDx=0;exitDy=0;" edge="1" parent="WIyWlLk6GJQsqaUBKTNV-1" source="MTp0QD98JIxEHf93p8Dd-15" target="MTp0QD98JIxEHf93p8Dd-0">
          <mxGeometry width="50" height="50" relative="1" as="geometry">
            <mxPoint x="140" y="120" as="sourcePoint" />
            <mxPoint x="105.3553390593272" y="71.21320343559637" as="targetPoint" />
          </mxGeometry>
        </mxCell>
        <mxCell id="MTp0QD98JIxEHf93p8Dd-23" value="" style="endArrow=none;html=1;entryX=0;entryY=1;entryDx=0;entryDy=0;exitX=0.5;exitY=0;exitDx=0;exitDy=0;" edge="1" parent="WIyWlLk6GJQsqaUBKTNV-1" source="MTp0QD98JIxEHf93p8Dd-16" target="MTp0QD98JIxEHf93p8Dd-0">
          <mxGeometry width="50" height="50" relative="1" as="geometry">
            <mxPoint x="150" y="130" as="sourcePoint" />
            <mxPoint x="115.3553390593272" y="81.21320343559637" as="targetPoint" />
          </mxGeometry>
        </mxCell>
        <mxCell id="MTp0QD98JIxEHf93p8Dd-24" value="" style="endArrow=none;html=1;entryX=0.5;entryY=1;entryDx=0;entryDy=0;exitX=0;exitY=0;exitDx=0;exitDy=0;" edge="1" parent="WIyWlLk6GJQsqaUBKTNV-1" source="MTp0QD98JIxEHf93p8Dd-0" target="MTp0QD98JIxEHf93p8Dd-13">
          <mxGeometry width="50" height="50" relative="1" as="geometry">
            <mxPoint x="160" y="140" as="sourcePoint" />
            <mxPoint x="125.3553390593272" y="91.21320343559637" as="targetPoint" />
          </mxGeometry>
        </mxCell>
        <mxCell id="MTp0QD98JIxEHf93p8Dd-25" value="" style="endArrow=none;html=1;entryX=0.5;entryY=1;entryDx=0;entryDy=0;exitX=0;exitY=0;exitDx=0;exitDy=0;" edge="1" parent="WIyWlLk6GJQsqaUBKTNV-1" source="MTp0QD98JIxEHf93p8Dd-0" target="MTp0QD98JIxEHf93p8Dd-17">
          <mxGeometry width="50" height="50" relative="1" as="geometry">
            <mxPoint x="170" y="150" as="sourcePoint" />
            <mxPoint x="135.3553390593272" y="101.21320343559637" as="targetPoint" />
          </mxGeometry>
        </mxCell>
        <mxCell id="MTp0QD98JIxEHf93p8Dd-26" value="" style="endArrow=none;html=1;entryX=1;entryY=0.5;entryDx=0;entryDy=0;exitX=0;exitY=0.5;exitDx=0;exitDy=0;" edge="1" parent="WIyWlLk6GJQsqaUBKTNV-1" source="MTp0QD98JIxEHf93p8Dd-2" target="MTp0QD98JIxEHf93p8Dd-0">
          <mxGeometry width="50" height="50" relative="1" as="geometry">
            <mxPoint x="180" y="160" as="sourcePoint" />
            <mxPoint x="145.3553390593272" y="111.21320343559637" as="targetPoint" />
          </mxGeometry>
        </mxCell>
        <mxCell id="MTp0QD98JIxEHf93p8Dd-27" value="" style="endArrow=none;html=1;entryX=1;entryY=0.5;entryDx=0;entryDy=0;exitX=0;exitY=0.5;exitDx=0;exitDy=0;" edge="1" parent="WIyWlLk6GJQsqaUBKTNV-1" source="MTp0QD98JIxEHf93p8Dd-3" target="MTp0QD98JIxEHf93p8Dd-2">
          <mxGeometry width="50" height="50" relative="1" as="geometry">
            <mxPoint x="190" y="170" as="sourcePoint" />
            <mxPoint x="155.3553390593272" y="121.21320343559637" as="targetPoint" />
          </mxGeometry>
        </mxCell>
        <mxCell id="MTp0QD98JIxEHf93p8Dd-31" value="1,N" style="text;html=1;strokeColor=none;fillColor=none;align=center;verticalAlign=middle;whiteSpace=wrap;rounded=0;" vertex="1" parent="WIyWlLk6GJQsqaUBKTNV-1">
          <mxGeometry x="240" y="80" width="40" height="20" as="geometry" />
        </mxCell>
        <mxCell id="MTp0QD98JIxEHf93p8Dd-32" value="N:1" style="text;html=1;strokeColor=none;fillColor=none;align=center;verticalAlign=middle;whiteSpace=wrap;rounded=0;" vertex="1" parent="WIyWlLk6GJQsqaUBKTNV-1">
          <mxGeometry x="380" y="50" width="40" height="20" as="geometry" />
        </mxCell>
        <mxCell id="MTp0QD98JIxEHf93p8Dd-33" value="1,1" style="text;html=1;strokeColor=none;fillColor=none;align=center;verticalAlign=middle;whiteSpace=wrap;rounded=0;" vertex="1" parent="WIyWlLk6GJQsqaUBKTNV-1">
          <mxGeometry x="520" y="80" width="40" height="20" as="geometry" />
        </mxCell>
        <mxCell id="MTp0QD98JIxEHf93p8Dd-34" value="Nombre" style="ellipse;whiteSpace=wrap;html=1;fontStyle=4;fillColor=#ffe6cc;strokeColor=#d79b00;" vertex="1" parent="WIyWlLk6GJQsqaUBKTNV-1">
          <mxGeometry x="-20" y="400" width="100" height="60" as="geometry" />
        </mxCell>
        <mxCell id="MTp0QD98JIxEHf93p8Dd-35" value="Nombre_profesor" style="ellipse;whiteSpace=wrap;html=1;fontStyle=0;fillColor=#ffe6cc;strokeColor=#d79b00;" vertex="1" parent="WIyWlLk6GJQsqaUBKTNV-1">
          <mxGeometry x="280" y="400" width="100" height="60" as="geometry" />
        </mxCell>
        <mxCell id="MTp0QD98JIxEHf93p8Dd-36" value="Objetivo" style="ellipse;whiteSpace=wrap;html=1;fontStyle=0;fillColor=#ffe6cc;strokeColor=#d79b00;" vertex="1" parent="WIyWlLk6GJQsqaUBKTNV-1">
          <mxGeometry x="260" y="460" width="100" height="60" as="geometry" />
        </mxCell>
        <mxCell id="MTp0QD98JIxEHf93p8Dd-37" value="Fecha_realización" style="ellipse;whiteSpace=wrap;html=1;fontStyle=0;fillColor=#ffe6cc;strokeColor=#d79b00;" vertex="1" parent="WIyWlLk6GJQsqaUBKTNV-1">
          <mxGeometry y="460" width="100" height="60" as="geometry" />
        </mxCell>
        <mxCell id="MTp0QD98JIxEHf93p8Dd-38" value="Lugar" style="ellipse;whiteSpace=wrap;html=1;fontStyle=0;fillColor=#ffe6cc;strokeColor=#d79b00;" vertex="1" parent="WIyWlLk6GJQsqaUBKTNV-1">
          <mxGeometry x="30" y="520" width="100" height="60" as="geometry" />
        </mxCell>
        <mxCell id="MTp0QD98JIxEHf93p8Dd-39" value="Horas" style="ellipse;whiteSpace=wrap;html=1;fontStyle=0;fillColor=#ffe6cc;strokeColor=#d79b00;" vertex="1" parent="WIyWlLk6GJQsqaUBKTNV-1">
          <mxGeometry x="230" y="520" width="100" height="60" as="geometry" />
        </mxCell>
        <mxCell id="MTp0QD98JIxEHf93p8Dd-40" value="Días" style="ellipse;whiteSpace=wrap;html=1;fontStyle=0;fillColor=#ffe6cc;strokeColor=#d79b00;" vertex="1" parent="WIyWlLk6GJQsqaUBKTNV-1">
          <mxGeometry x="130" y="555" width="100" height="60" as="geometry" />
        </mxCell>
        <mxCell id="MTp0QD98JIxEHf93p8Dd-41" value="Nombre" style="ellipse;whiteSpace=wrap;html=1;fontStyle=4;fillColor=#ffe6cc;strokeColor=#d79b00;" vertex="1" parent="WIyWlLk6GJQsqaUBKTNV-1">
          <mxGeometry x="390" y="400" width="100" height="60" as="geometry" />
        </mxCell>
        <mxCell id="MTp0QD98JIxEHf93p8Dd-42" value="Ponente" style="ellipse;whiteSpace=wrap;html=1;fontStyle=0;fillColor=#ffe6cc;strokeColor=#d79b00;" vertex="1" parent="WIyWlLk6GJQsqaUBKTNV-1">
          <mxGeometry x="690" y="400" width="100" height="60" as="geometry" />
        </mxCell>
        <mxCell id="MTp0QD98JIxEHf93p8Dd-43" value="Descripción_trayectoria" style="ellipse;whiteSpace=wrap;html=1;fontStyle=0;fillColor=#ffe6cc;strokeColor=#d79b00;" vertex="1" parent="WIyWlLk6GJQsqaUBKTNV-1">
          <mxGeometry x="670" y="462" width="130" height="60" as="geometry" />
        </mxCell>
        <mxCell id="MTp0QD98JIxEHf93p8Dd-44" value="Fecha_realización" style="ellipse;whiteSpace=wrap;html=1;fontStyle=0;fillColor=#ffe6cc;strokeColor=#d79b00;" vertex="1" parent="WIyWlLk6GJQsqaUBKTNV-1">
          <mxGeometry x="410" y="460" width="100" height="60" as="geometry" />
        </mxCell>
        <mxCell id="MTp0QD98JIxEHf93p8Dd-45" value="Lugar" style="ellipse;whiteSpace=wrap;html=1;fontStyle=0;fillColor=#ffe6cc;strokeColor=#d79b00;" vertex="1" parent="WIyWlLk6GJQsqaUBKTNV-1">
          <mxGeometry x="440" y="520" width="100" height="60" as="geometry" />
        </mxCell>
        <mxCell id="MTp0QD98JIxEHf93p8Dd-46" value="Web" style="ellipse;whiteSpace=wrap;html=1;fontStyle=0;fillColor=#ffe6cc;strokeColor=#d79b00;" vertex="1" parent="WIyWlLk6GJQsqaUBKTNV-1">
          <mxGeometry x="640" y="520" width="100" height="60" as="geometry" />
        </mxCell>
        <mxCell id="MTp0QD98JIxEHf93p8Dd-48" value="" style="endArrow=none;html=1;exitX=0.5;exitY=1;exitDx=0;exitDy=0;entryX=0;entryY=0.5;entryDx=0;entryDy=0;" edge="1" parent="WIyWlLk6GJQsqaUBKTNV-1" source="MTp0QD98JIxEHf93p8Dd-9" target="MTp0QD98JIxEHf93p8Dd-35">
          <mxGeometry width="50" height="50" relative="1" as="geometry">
            <mxPoint x="290" y="450" as="sourcePoint" />
            <mxPoint x="340" y="400" as="targetPoint" />
          </mxGeometry>
        </mxCell>
        <mxCell id="MTp0QD98JIxEHf93p8Dd-49" value="" style="endArrow=none;html=1;exitX=0.5;exitY=1;exitDx=0;exitDy=0;entryX=0;entryY=0.5;entryDx=0;entryDy=0;" edge="1" parent="WIyWlLk6GJQsqaUBKTNV-1" source="MTp0QD98JIxEHf93p8Dd-9" target="MTp0QD98JIxEHf93p8Dd-36">
          <mxGeometry width="50" height="50" relative="1" as="geometry">
            <mxPoint x="190" y="410" as="sourcePoint" />
            <mxPoint x="290" y="440" as="targetPoint" />
          </mxGeometry>
        </mxCell>
        <mxCell id="MTp0QD98JIxEHf93p8Dd-50" value="" style="endArrow=none;html=1;exitX=0.5;exitY=1;exitDx=0;exitDy=0;entryX=0;entryY=0.5;entryDx=0;entryDy=0;" edge="1" parent="WIyWlLk6GJQsqaUBKTNV-1" source="MTp0QD98JIxEHf93p8Dd-9" target="MTp0QD98JIxEHf93p8Dd-39">
          <mxGeometry width="50" height="50" relative="1" as="geometry">
            <mxPoint x="200" y="420" as="sourcePoint" />
            <mxPoint x="300" y="450" as="targetPoint" />
          </mxGeometry>
        </mxCell>
        <mxCell id="MTp0QD98JIxEHf93p8Dd-51" value="" style="endArrow=none;html=1;exitX=0.5;exitY=1;exitDx=0;exitDy=0;entryX=0.5;entryY=0;entryDx=0;entryDy=0;" edge="1" parent="WIyWlLk6GJQsqaUBKTNV-1" source="MTp0QD98JIxEHf93p8Dd-9" target="MTp0QD98JIxEHf93p8Dd-40">
          <mxGeometry width="50" height="50" relative="1" as="geometry">
            <mxPoint x="210" y="430" as="sourcePoint" />
            <mxPoint x="310" y="460" as="targetPoint" />
          </mxGeometry>
        </mxCell>
        <mxCell id="MTp0QD98JIxEHf93p8Dd-52" value="" style="endArrow=none;html=1;exitX=0.5;exitY=1;exitDx=0;exitDy=0;entryX=1;entryY=0.5;entryDx=0;entryDy=0;" edge="1" parent="WIyWlLk6GJQsqaUBKTNV-1" source="MTp0QD98JIxEHf93p8Dd-9" target="MTp0QD98JIxEHf93p8Dd-34">
          <mxGeometry width="50" height="50" relative="1" as="geometry">
            <mxPoint x="220" y="440" as="sourcePoint" />
            <mxPoint x="320" y="470" as="targetPoint" />
          </mxGeometry>
        </mxCell>
        <mxCell id="MTp0QD98JIxEHf93p8Dd-53" value="" style="endArrow=none;html=1;exitX=0.5;exitY=1;exitDx=0;exitDy=0;entryX=1;entryY=0.5;entryDx=0;entryDy=0;" edge="1" parent="WIyWlLk6GJQsqaUBKTNV-1" source="MTp0QD98JIxEHf93p8Dd-9" target="MTp0QD98JIxEHf93p8Dd-37">
          <mxGeometry width="50" height="50" relative="1" as="geometry">
            <mxPoint x="230" y="450" as="sourcePoint" />
            <mxPoint x="330" y="480" as="targetPoint" />
          </mxGeometry>
        </mxCell>
        <mxCell id="MTp0QD98JIxEHf93p8Dd-54" value="" style="endArrow=none;html=1;exitX=0.5;exitY=1;exitDx=0;exitDy=0;entryX=1;entryY=0.5;entryDx=0;entryDy=0;" edge="1" parent="WIyWlLk6GJQsqaUBKTNV-1" source="MTp0QD98JIxEHf93p8Dd-9" target="MTp0QD98JIxEHf93p8Dd-38">
          <mxGeometry width="50" height="50" relative="1" as="geometry">
            <mxPoint x="240" y="460" as="sourcePoint" />
            <mxPoint x="340" y="490" as="targetPoint" />
          </mxGeometry>
        </mxCell>
        <mxCell id="MTp0QD98JIxEHf93p8Dd-55" value="" style="endArrow=none;html=1;exitX=0.5;exitY=1;exitDx=0;exitDy=0;entryX=1;entryY=0.5;entryDx=0;entryDy=0;" edge="1" parent="WIyWlLk6GJQsqaUBKTNV-1" source="MTp0QD98JIxEHf93p8Dd-10" target="MTp0QD98JIxEHf93p8Dd-41">
          <mxGeometry width="50" height="50" relative="1" as="geometry">
            <mxPoint x="250" y="470" as="sourcePoint" />
            <mxPoint x="350" y="500" as="targetPoint" />
          </mxGeometry>
        </mxCell>
        <mxCell id="MTp0QD98JIxEHf93p8Dd-56" value="" style="endArrow=none;html=1;exitX=0.5;exitY=1;exitDx=0;exitDy=0;entryX=1;entryY=0.5;entryDx=0;entryDy=0;" edge="1" parent="WIyWlLk6GJQsqaUBKTNV-1" source="MTp0QD98JIxEHf93p8Dd-10" target="MTp0QD98JIxEHf93p8Dd-44">
          <mxGeometry width="50" height="50" relative="1" as="geometry">
            <mxPoint x="260" y="480" as="sourcePoint" />
            <mxPoint x="360" y="510" as="targetPoint" />
          </mxGeometry>
        </mxCell>
        <mxCell id="MTp0QD98JIxEHf93p8Dd-57" value="" style="endArrow=none;html=1;exitX=0.5;exitY=1;exitDx=0;exitDy=0;entryX=1;entryY=0.5;entryDx=0;entryDy=0;" edge="1" parent="WIyWlLk6GJQsqaUBKTNV-1" source="MTp0QD98JIxEHf93p8Dd-10" target="MTp0QD98JIxEHf93p8Dd-45">
          <mxGeometry width="50" height="50" relative="1" as="geometry">
            <mxPoint x="600" y="410" as="sourcePoint" />
            <mxPoint x="520" y="500" as="targetPoint" />
          </mxGeometry>
        </mxCell>
        <mxCell id="MTp0QD98JIxEHf93p8Dd-58" value="" style="endArrow=none;html=1;exitX=0.5;exitY=1;exitDx=0;exitDy=0;entryX=0;entryY=0.5;entryDx=0;entryDy=0;" edge="1" parent="WIyWlLk6GJQsqaUBKTNV-1" source="MTp0QD98JIxEHf93p8Dd-10" target="MTp0QD98JIxEHf93p8Dd-46">
          <mxGeometry width="50" height="50" relative="1" as="geometry">
            <mxPoint x="610" y="420" as="sourcePoint" />
            <mxPoint x="530" y="510" as="targetPoint" />
          </mxGeometry>
        </mxCell>
        <mxCell id="MTp0QD98JIxEHf93p8Dd-59" value="" style="endArrow=none;html=1;exitX=0.5;exitY=1;exitDx=0;exitDy=0;entryX=0;entryY=0.5;entryDx=0;entryDy=0;" edge="1" parent="WIyWlLk6GJQsqaUBKTNV-1" source="MTp0QD98JIxEHf93p8Dd-10" target="MTp0QD98JIxEHf93p8Dd-42">
          <mxGeometry width="50" height="50" relative="1" as="geometry">
            <mxPoint x="620" y="430" as="sourcePoint" />
            <mxPoint x="540" y="520" as="targetPoint" />
          </mxGeometry>
        </mxCell>
        <mxCell id="MTp0QD98JIxEHf93p8Dd-60" value="" style="endArrow=none;html=1;exitX=0.5;exitY=1;exitDx=0;exitDy=0;entryX=0;entryY=0.5;entryDx=0;entryDy=0;" edge="1" parent="WIyWlLk6GJQsqaUBKTNV-1" source="MTp0QD98JIxEHf93p8Dd-10" target="MTp0QD98JIxEHf93p8Dd-43">
          <mxGeometry width="50" height="50" relative="1" as="geometry">
            <mxPoint x="630" y="440" as="sourcePoint" />
            <mxPoint x="550" y="530" as="targetPoint" />
          </mxGeometry>
        </mxCell>
        <mxCell id="MTp0QD98JIxEHf93p8Dd-61" value="1,N" style="text;html=1;strokeColor=none;fillColor=none;align=center;verticalAlign=middle;whiteSpace=wrap;rounded=0;" vertex="1" parent="WIyWlLk6GJQsqaUBKTNV-1">
          <mxGeometry x="150" y="120" width="40" height="20" as="geometry" />
        </mxCell>
        <mxCell id="MTp0QD98JIxEHf93p8Dd-62" value="N:N" style="text;html=1;strokeColor=none;fillColor=none;align=center;verticalAlign=middle;whiteSpace=wrap;rounded=0;" vertex="1" parent="WIyWlLk6GJQsqaUBKTNV-1">
          <mxGeometry x="370" y="200" width="40" height="20" as="geometry" />
        </mxCell>
        <mxCell id="MTp0QD98JIxEHf93p8Dd-63" value="1,N" style="text;html=1;strokeColor=none;fillColor=none;align=center;verticalAlign=middle;whiteSpace=wrap;rounded=0;" vertex="1" parent="WIyWlLk6GJQsqaUBKTNV-1">
          <mxGeometry x="580" y="340" width="40" height="20" as="geometry" />
        </mxCell>
        <mxCell id="MTp0QD98JIxEHf93p8Dd-64" value="1,N" style="text;html=1;strokeColor=none;fillColor=none;align=center;verticalAlign=middle;whiteSpace=wrap;rounded=0;" vertex="1" parent="WIyWlLk6GJQsqaUBKTNV-1">
          <mxGeometry x="150" y="340" width="40" height="20" as="geometry" />
        </mxCell>
        <mxCell id="MTp0QD98JIxEHf93p8Dd-65" value="" style="endArrow=none;dashed=1;html=1;entryX=0.5;entryY=1;entryDx=0;entryDy=0;exitX=0.25;exitY=1;exitDx=0;exitDy=0;" edge="1" parent="WIyWlLk6GJQsqaUBKTNV-1" source="MTp0QD98JIxEHf93p8Dd-62" target="MTp0QD98JIxEHf93p8Dd-0">
          <mxGeometry width="50" height="50" relative="1" as="geometry">
            <mxPoint x="220" y="350" as="sourcePoint" />
            <mxPoint x="270" y="300" as="targetPoint" />
          </mxGeometry>
        </mxCell>
        <mxCell id="MTp0QD98JIxEHf93p8Dd-66" value="" style="endArrow=none;dashed=1;html=1;entryX=0.75;entryY=1;entryDx=0;entryDy=0;exitX=0.5;exitY=1;exitDx=0;exitDy=0;" edge="1" parent="WIyWlLk6GJQsqaUBKTNV-1" source="MTp0QD98JIxEHf93p8Dd-11" target="MTp0QD98JIxEHf93p8Dd-64">
          <mxGeometry width="50" height="50" relative="1" as="geometry">
            <mxPoint x="380" y="280" as="sourcePoint" />
            <mxPoint x="190" y="130" as="targetPoint" />
          </mxGeometry>
        </mxCell>
        <mxCell id="MTp0QD98JIxEHf93p8Dd-67" value="" style="endArrow=none;dashed=1;html=1;entryX=0.5;entryY=1;entryDx=0;entryDy=0;exitX=0.25;exitY=1;exitDx=0;exitDy=0;" edge="1" parent="WIyWlLk6GJQsqaUBKTNV-1" source="MTp0QD98JIxEHf93p8Dd-63" target="MTp0QD98JIxEHf93p8Dd-11">
          <mxGeometry width="50" height="50" relative="1" as="geometry">
            <mxPoint x="480" y="290" as="sourcePoint" />
            <mxPoint x="380" y="280" as="targetPoint" />
          </mxGeometry>
        </mxCell>
      </root>
    </mxGraphModel>
  </diagram>
</mxfile>
